<?xml version="1.0" encoding="utf-8"?>
<!-- Generator: Adobe Illustrator 16.0.0, SVG Export Plug-In . SVG Version: 6.00 Build 0)  -->
<!DOCTYPE svg PUBLIC "-//W3C//DTD SVG 1.1//EN" "http://www.w3.org/Graphics/SVG/1.1/DTD/svg11.dtd">
<svg version="1.1" id="Layer_1" xmlns="http://www.w3.org/2000/svg" xmlns:xlink="http://www.w3.org/1999/xlink" x="0px" y="0px"
	 width="284px" height="50px" viewBox="0 0 284 50" enable-background="new 0 0 284 50" xml:space="preserve">
<title>IIDS-logo</title>
<desc>Created with Sketch.</desc>
<text transform="matrix(1 0 0 1 -1 42.752)"><tspan x="0" y="0" fill="#FFFFFF" font-family="'AGaramond-Regular'" font-size="55.1183">I</tspan><tspan x="18.134" y="0" fill="#FFFFFF" font-family="'AGaramond-Regular'" font-size="55.1183">ID</tspan><tspan x="78.653" y="0" fill="#FFFFFF" font-family="'AGaramond-Regular'" font-size="55.1183">S</tspan></text>
<text transform="matrix(1 0 0 1 124.9727 21.0938)" fill="#FFFFFF" font-family="'Georgia'" font-size="12.7946">Institute for Integrated </text>
<text transform="matrix(1 0 0 1 124.9727 35.8555)" fill="#FFFFFF" font-family="'Georgia'" font-size="12.7946">Development Studies</text>
<text transform="matrix(1 0 0 1 245.4287 35.8555)" fill="#AD1B1F" font-family="'Wingdings-Regular'" font-size="6.6569" letter-spacing="-3"> </text>
<g>
	<path fill="#AD1B1F" d="M249.271,33.664c0-0.483,0.171-0.896,0.513-1.239c0.343-0.342,0.755-0.514,1.238-0.514
		s0.896,0.172,1.239,0.514c0.344,0.343,0.516,0.756,0.516,1.239c0,0.484-0.172,0.896-0.516,1.239
		c-0.343,0.343-0.756,0.514-1.239,0.514s-0.896-0.171-1.238-0.514C249.441,34.561,249.271,34.148,249.271,33.664z"/>
</g>
<text transform="matrix(1 0 0 1 253.2852 35.8555)" fill="#AD1B1F" font-family="'Wingdings-Regular'" font-size="6.6569" letter-spacing="-3"> </text>
<text transform="matrix(1 0 0 1 256.6133 35.8555)" fill="#FFFFFF" font-family="'Georgia'" font-size="12.7946">1979</text>
<line fill="none" stroke="#AD1B1F" stroke-width="2" x1="114.476" y1="44.258" x2="114.476" y2="5.742"/>
</svg>
